<svg width="168" height="163" viewBox="0 0 168 163" fill="none" xmlns="http://www.w3.org/2000/svg">
<rect width="168" height="163" rx="33" fill="#E4245C"/>
<path d="M115.125 80C117.042 81 118.958 82.0833 120.875 83.25C122.875 84.4167 124.708 85.5417 126.375 86.625C128.042 87.625 129.417 88.5833 130.5 89.5C131.667 90.3333 132.417 91 132.75 91.5C133.167 92.1667 133.375 93.2083 133.375 94.625C133.375 95.9583 133.25 97.4583 133 99.125C132.833 100.708 132.542 102.292 132.125 103.875C131.708 105.375 131.25 106.583 130.75 107.5C130.167 108.667 128.833 110.167 126.75 112C124.75 113.833 122.5 115.667 120 117.5C117.5 119.333 115.042 120.958 112.625 122.375C110.292 123.792 108.5 124.667 107.25 125C106.333 125.25 104.958 125.5 103.125 125.75C101.375 126 99.5417 126.208 97.625 126.375C95.7083 126.542 93.9583 126.667 92.375 126.75C90.875 126.75 89.9583 126.667 89.625 126.5C88.9583 126.083 88.375 125.458 87.875 124.625C87.4583 123.792 87.25 122.708 87.25 121.375C87.4167 118.458 87.75 116.458 88.25 115.375C88.4167 115.125 88.625 115 88.875 115C89.125 114.917 89.5417 114.875 90.125 114.875C90.7083 114.875 91.4583 114.875 92.375 114.875C93.2917 114.875 94.5 114.833 96 114.75C95.5833 110.5 95.2083 106.458 94.875 102.625C94.5417 98.7917 94.25 95.4167 94 92.5C93.6667 89.0833 93.4167 85.875 93.25 82.875C93.0833 79.9583 92.8333 76.7083 92.5 73.125C92.25 70.0417 91.9583 66.4583 91.625 62.375C91.2917 58.2917 90.9167 53.875 90.5 49.125C89.75 49.125 88.875 49.125 87.875 49.125C86.875 49.125 85.875 49.125 84.875 49.125C83.9583 49.0417 83.1667 48.9583 82.5 48.875C81.75 48.7083 81.2917 48.5 81.125 48.25C80.7917 47.75 80.5417 46.8333 80.375 45.5C80.2083 44.0833 80.125 42.7083 80.125 41.375C80.125 39.9583 80.375 38.5833 80.875 37.25C81.375 35.8333 81.9583 34.9167 82.625 34.5C82.7917 34.4167 83.4583 34.4167 84.625 34.5C85.7917 34.5 87.2083 34.625 88.875 34.875C90.5417 35.0417 92.3333 35.2917 94.25 35.625C96.25 35.875 98.125 36.1667 99.875 36.5C101.625 36.75 103.167 37 104.5 37.25C105.833 37.5 106.75 37.6667 107.25 37.75C108.083 37.9167 109.667 38.375 112 39.125C114.417 39.7917 117 40.5833 119.75 41.5C122.5 42.4167 125.125 43.4583 127.625 44.625C130.125 45.7083 131.875 46.7917 132.875 47.875C133.292 48.2917 133.667 49.4583 134 51.375C134.417 53.2917 134.708 55.4167 134.875 57.75C135.125 60.0833 135.208 62.2917 135.125 64.375C135.125 66.375 134.917 67.7083 134.5 68.375C134.167 68.875 133 69.75 131 71C129 72.25 126.792 73.5417 124.375 74.875C121.625 76.375 118.542 78.0833 115.125 80ZM105.625 77.5C106.708 77 108.167 76 110 74.5C111.917 73 113.792 71.3333 115.625 69.5C117.542 67.5833 119.167 65.6667 120.5 63.75C121.917 61.75 122.625 60.0417 122.625 58.625C122.625 58.2083 122.167 57.6667 121.25 57C120.417 56.3333 119.25 55.6667 117.75 55C116.25 54.3333 114.458 53.6667 112.375 53C110.375 52.25 108.208 51.5833 105.875 51L105.625 77.5ZM105.5 113.375C107.833 112.875 110.042 112.083 112.125 111C114.208 109.917 116.042 108.75 117.625 107.5C119.208 106.167 120.458 104.833 121.375 103.5C122.292 102.167 122.75 100.958 122.75 99.875C122.75 98.7917 122.042 97.5833 120.625 96.25C119.292 94.9167 117.667 93.5833 115.75 92.25C113.917 90.9167 112.042 89.7083 110.125 88.625C108.208 87.5417 106.708 86.75 105.625 86.25L105.5 113.375Z" fill="white"/>
<path d="M31.5 103.625C31.5 102.958 31.75 101.958 32.25 100.625C32.6667 99.2917 33.2083 97.9583 33.875 96.625C34.4583 95.2917 35.0417 94.1667 35.625 93.25C36.2917 92.3333 36.7917 92 37.125 92.25C37.375 92.4167 37.9167 93.125 38.75 94.375C39.5833 95.625 40.5417 97.125 41.625 98.875C42.7917 100.542 44.0417 102.375 45.375 104.375C46.7083 106.292 47.9583 108.042 49.125 109.625C50.375 111.208 51.4583 112.5 52.375 113.5C53.2917 114.417 53.9583 114.75 54.375 114.5C54.9583 114.167 55.5 112.458 56 109.375C56.5833 106.292 57.0833 102.5 57.5 98C57.9167 93.5 58.2917 88.6667 58.625 83.5C58.9583 78.25 59.25 73.3333 59.5 68.75C59.75 64.0833 59.9167 60.0833 60 56.75C60.1667 53.3333 60.2917 51.2083 60.375 50.375C60.375 49.625 60.7917 48.3333 61.625 46.5C62.5417 44.5833 63.5833 42.7083 64.75 40.875C65.9167 39.0417 67.0417 37.5 68.125 36.25C69.2917 35 70.1667 34.5833 70.75 35C71 35.25 71.1667 36.7083 71.25 39.375C71.4167 41.9583 71.5417 45.3333 71.625 49.5C71.7083 53.6667 71.7083 58.4167 71.625 63.75C71.5417 69 71.4167 74.375 71.25 79.875C71.1667 85.375 71 90.8333 70.75 96.25C70.5 101.583 70.2083 106.417 69.875 110.75C69.625 115 69.2917 118.583 68.875 121.5C68.4583 124.333 68 126.042 67.5 126.625C67.1667 127.042 66.1667 127.542 64.5 128.125C62.8333 128.708 61 129.208 59 129.625C57.0833 130.125 55.2083 130.5 53.375 130.75C51.5417 131 50.25 131 49.5 130.75C47.8333 130.25 45.9583 128.708 43.875 126.125C41.875 123.458 39.9167 120.583 38 117.5C36.1667 114.417 34.625 111.542 33.375 108.875C32.125 106.125 31.5 104.375 31.5 103.625Z" fill="white"/>
</svg>
